# xmcd
#
# Track frame offsets:
#	182
#	15575
#	28360
#	48625
#	58475
#	76847
#	88930
#	106540
#	123105
#	138442
#	154980
#	172437
#	187335
#	202437
#	219062
#	232672
#	244490
#	257365
#
# Disc length: 3684
#
# Revision: 6
# Processed by: cddbd v1.5.1PL0 Copyright (c) Steve Scherf et al.
# Submitted via: CdAid 2001.04.01.00
# Normalized: r3:DSETVAR1,TDELIM( - ),TSWAP
#
DISCID=070e6212
DTITLE=Various Artist - Schmusehits mit Herz und Gefühl
DYEAR=1900
DGENRE=
TTITLE0=Vicky Leandros - Die Bouzouki klang durch die Sommernacht
TTITLE1=Erik Silvester - Du liebst nur einmal
TTITLE2=Günther Stern - Nie mehr Bolero
TTITLE3=Gerd Böttcher - Du schaust mich an
TTITLE4=Wencke Myhre - Die Nacht, als der Himmel Feuer fing
TTITLE5=Ann and Andy - Ein Herz, das dich liebt
TTITLE6=Bernd Clüver - Ein Stück von meinem Himmel
TTITLE7=Charlene - Santo Domingo
TTITLE8=Bata Illic - Schlag´ die Tür nicht zu
TTITLE9=Roy Black - Ganz in Weiß
TTITLE10=Lolita - Mandolinen von Nikosia
TTITLE11=Peter Orloff - Cora, komm´ nach Haus
TTITLE12=Rene Carol - Rote Rosen, rote Lippen, roter Wein
TTITLE13=Ulli Martin - Ich träume mit offenen Augen von dir
TTITLE14=Roadrunner - Monja
TTITLE15=Peter Beil - ...und ein Zug fährt durch die Nacht
TTITLE16=Jimmy Makulis - Rot ist der Wein
TTITLE17=Rex Gildo - Der letzte Sirtaki
EXTD=
EXTT0=
EXTT1=
EXTT2=
EXTT3=
EXTT4=
EXTT5=
EXTT6=
EXTT7=
EXTT8=
EXTT9=
EXTT10=
EXTT11=
EXTT12=
EXTT13=
EXTT14=
EXTT15=
EXTT16=
EXTT17=
PLAYORDER=
